# xmcd
#
# Track frame offsets:
#	150
#	11281
#	26527
#	44820
#	55289
#	68613
#	79909
#	91550
#	105733
#	118127
#	128200
#	141534
#	155497
#	168566
#	184217
#
# Disc length: 2668 seconds
#
# Revision: 0
# Processed by: cddbd v1.5.1PL0 Copyright (c) Steve Scherf et al.
# Submitted via: dBpowerAMP V4.0
#
DISCID=cd0a6a0f
DTITLE=Södergatan Blues Band - Södergatan Blues Band
DYEAR=1900
DGENRE=
TTITLE0=Track01 Lula Mae
TTITLE1=Track02 I Got Eyes
TTITLE2=Track03 Wild Cat Tamer
TTITLE3=Track04 Down In The Bottom
TTITLE4=Track05 Party Girl
TTITLE5=Track06 I Didn´t Know
TTITLE6=Track07 Bring It On Home
TTITLE7=Track08 A Man Need His Loving
TTITLE8=Track09 T-bone Shuffle
TTITLE9=Track10 Do What You Wanna Do
TTITLE10=Track11 Talking Woman Blues
TTITLE11=Track12 Sitting On Top Of The World
TTITLE12=Track13 I Ain´t Got You
TTITLE13=Track14 Solros
TTITLE14=Track15 Tell Me What´s The Reason
EXTD=
EXTT0=
EXTT1=
EXTT2=
EXTT3=
EXTT4=
EXTT5=
EXTT6=
EXTT7=
EXTT8=
EXTT9=
EXTT10=
EXTT11=
EXTT12=
EXTT13=
EXTT14=
PLAYORDER=
